<!DOCTYPE svg PUBLIC "-//W3C//DTD SVG 1.1//EN" "http://www.w3.org/Graphics/SVG/1.1/DTD/svg11.dtd">
<!-- Uploaded to: SVG Repo, www.svgrepo.com, Transformed by: SVG Repo Mixer Tools -->
<svg width="64px" height="64px" viewBox="0 0 24 24" xmlns="http://www.w3.org/2000/svg" id="right" class="icon glyph" fill="#000000">
<g id="SVGRepo_bgCarrier" stroke-width="0"/>
<g id="SVGRepo_tracerCarrier" stroke-linecap="round" stroke-linejoin="round"/>
<g id="SVGRepo_iconCarrier">
<path d="M21.92,11.62a1.15,1.15,0,0,0-.21-.33h0l-7-7a1,1,0,0,0-1.42,1.42L18.59,11H3a1,1,0,0,0,0,2H18.59l-5.3,5.29a1,1,0,0,0,0,1.42,1,1,0,0,0,1.42,0l7-7h0a1.15,1.15,0,0,0,.21-.33.94.94,0,0,0,0-.76Z" style="fill:#231f20"/>
</g>
</svg>